<svg xmlns="http://www.w3.org/2000/svg" viewBox="0 0 1440 900" width="1440" height="900">
  <defs>
    <style>
      .bg { fill: #0a0a0f; }
      .overlay { fill: rgba(0,0,0,0.7); }
      .dialog { fill: #13131a; stroke: #23233a; stroke-width: 1; rx: 16; }
      .card { fill: #0a0a0f; stroke: #23233a; stroke-width: 1; rx: 10; }
      .text-mono { fill: #e4e4e7; font-family: 'JetBrains Mono', monospace; }
      .text-muted { fill: #71717a; font-family: 'Roboto', sans-serif; }
      .text-muted-mono { fill: #71717a; font-family: 'JetBrains Mono', monospace; }
      .input-bg { fill: #0a0a0f; stroke: #23233a; stroke-width: 1; rx: 8; }
    </style>
  </defs>

  <rect class="bg" width="1440" height="900"/>
  <rect class="overlay" width="1440" height="900"/>

  <rect class="dialog" x="80" y="10" width="1280" height="880"/>

  <!-- Header -->
  <text x="120" y="48" class="text-mono" font-size="20" font-weight="700">🔌 Port Registry</text>
  <text x="120" y="68" class="text-muted" font-size="12">Track port allocations and detect conflicts across all stacks</text>
  <text x="1320" y="46" class="text-muted" font-size="20">✕</text>

  <!-- Stats Bar -->
  <rect x="120" y="82" width="150" height="40" rx="8" fill="#0a0a0f" stroke="#23233a"/>
  <text x="136" y="100" class="text-muted" font-size="9">Total Ports</text>
  <text x="136" y="114" class="text-mono" font-size="14" font-weight="600">14</text>

  <rect x="280" y="82" width="150" height="40" rx="8" fill="#0a0a0f" stroke="#23233a"/>
  <text x="296" y="100" class="text-muted" font-size="9">Mappings</text>
  <text x="296" y="114" class="text-mono" font-size="14" font-weight="600">11</text>

  <rect x="440" y="82" width="150" height="40" rx="8" fill="rgba(239,68,68,0.04)" stroke="rgba(239,68,68,0.3)"/>
  <text x="456" y="100" fill="#ef4444" font-size="9" font-family="Roboto">Conflicts</text>
  <text x="456" y="114" fill="#ef4444" font-family="JetBrains Mono" font-size="14" font-weight="600">1</text>

  <rect x="600" y="82" width="150" height="40" rx="8" fill="rgba(34,197,94,0.04)" stroke="rgba(34,197,94,0.3)"/>
  <text x="616" y="100" fill="#22c55e" font-size="9" font-family="Roboto">Available</text>
  <text x="616" y="114" fill="#22c55e" font-family="JetBrains Mono" font-size="14" font-weight="600">65,521</text>

  <rect x="760" y="82" width="150" height="40" rx="8" fill="rgba(109,90,205,0.04)" stroke="rgba(109,90,205,0.3)"/>
  <text x="776" y="100" fill="#6d5acd" font-size="9" font-family="Roboto">Reservations</text>
  <text x="776" y="114" fill="#6d5acd" font-family="JetBrains Mono" font-size="14" font-weight="600">3</text>

  <rect x="920" y="82" width="150" height="40" rx="8" fill="rgba(59,130,246,0.04)" stroke="rgba(59,130,246,0.3)"/>
  <text x="936" y="100" fill="#3b82f6" font-size="9" font-family="Roboto">Reserved</text>
  <text x="936" y="114" fill="#3b82f6" font-family="JetBrains Mono" font-size="14" font-weight="600">300</text>

  <!-- Search + Filters -->
  <rect class="input-bg" x="120" y="134" width="280" height="28"/>
  <text x="140" y="153" class="text-muted-mono" font-size="10">🔍 Search by port, name, or group...</text>
  <rect x="420" y="134" width="46" height="28" rx="6" fill="#1a1a2e"/>
  <text x="434" y="153" fill="#e4e4e7" font-size="10" font-family="Roboto">All</text>
  <rect x="474" y="134" width="80" height="28" rx="6" stroke="#23233a" fill="transparent"/>
  <text x="488" y="153" fill="#f59e0b" font-size="10" font-family="Roboto">⚠ Conflicts</text>
  <rect x="562" y="134" width="80" height="28" rx="6" stroke="#23233a" fill="transparent"/>
  <text x="576" y="153" fill="#22c55e" font-size="10" font-family="Roboto">✓ Available</text>

  <!-- 3 Tabs -->
  <rect x="120" y="174" width="1200" height="1" fill="#23233a"/>
  <text x="128" y="196" class="text-muted-mono" font-size="11">Timeline View</text>
  <text x="244" y="196" class="text-muted-mono" font-size="11">Port Mappings</text>
  <rect x="374" y="174" width="140" height="2" fill="#6d5acd"/>
  <text x="382" y="196" class="text-mono" font-size="11" font-weight="500" fill="#e4e4e7">Range Reservations</text>

  <!-- New Reservation Form -->
  <rect class="card" x="120" y="212" width="1200" height="100"/>
  <text x="146" y="236" class="text-mono" font-size="12" font-weight="600">+ New Reservation</text>

  <text x="146" y="258" class="text-muted" font-size="9">Name</text>
  <rect class="input-bg" x="146" y="264" width="160" height="24"/>
  <text x="158" y="280" class="text-muted-mono" font-size="9">e.g., Media Services</text>

  <text x="318" y="258" class="text-muted" font-size="9">Group</text>
  <rect class="input-bg" x="318" y="264" width="100" height="24"/>
  <text x="330" y="280" class="text-muted-mono" font-size="9">e.g., media</text>

  <text x="430" y="258" class="text-muted" font-size="9">Start Port</text>
  <rect class="input-bg" x="430" y="264" width="70" height="24"/>
  <text x="442" y="280" class="text-muted-mono" font-size="9">8000</text>

  <text x="510" y="258" class="text-muted" font-size="9">End Port</text>
  <rect class="input-bg" x="510" y="264" width="70" height="24"/>
  <text x="522" y="280" class="text-muted-mono" font-size="9">8099</text>

  <text x="600" y="258" class="text-muted" font-size="9">Color</text>
  <circle cx="610" cy="276" r="8" fill="#ef4444" stroke="#fff" stroke-width="1"/>
  <circle cx="632" cy="276" r="8" fill="#f59e0b"/>
  <circle cx="654" cy="276" r="8" fill="#22c55e"/>
  <circle cx="676" cy="276" r="8" fill="#3b82f6"/>
  <circle cx="698" cy="276" r="8" fill="#6d5acd"/>
  <circle cx="720" cy="276" r="8" fill="#71717a"/>

  <rect x="750" y="264" width="100" height="24" rx="6" fill="#6d5acd"/>
  <text x="766" y="281" fill="#fff" font-family="Roboto" font-size="10">Create</text>

  <!-- Quick Presets -->
  <text x="880" y="236" class="text-muted" font-size="9">Quick Presets:</text>
  <rect x="880" y="246" width="100" height="20" rx="4" stroke="#23233a" fill="transparent"/>
  <text x="890" y="260" class="text-muted" font-size="8">Media 8000-8099</text>
  <rect x="988" y="246" width="100" height="20" rx="4" stroke="#23233a" fill="transparent"/>
  <text x="998" y="260" class="text-muted" font-size="8">Home 8100-8199</text>
  <rect x="1096" y="246" width="100" height="20" rx="4" stroke="#23233a" fill="transparent"/>
  <text x="1106" y="260" class="text-muted" font-size="8">Network 8200-8299</text>
  <rect x="880" y="272" width="100" height="20" rx="4" stroke="#23233a" fill="transparent"/>
  <text x="890" y="286" class="text-muted" font-size="8">Dev 3000-3099</text>
  <rect x="988" y="272" width="100" height="20" rx="4" stroke="#23233a" fill="transparent"/>
  <text x="998" y="286" class="text-muted" font-size="8">DB 5400-5499</text>
  <rect x="1096" y="272" width="100" height="20" rx="4" stroke="#23233a" fill="transparent"/>
  <text x="1106" y="286" class="text-muted" font-size="8">Monitor 9000-9099</text>

  <!-- Existing Reservations -->
  <!-- Reservation 1: Media Services -->
  <rect class="card" x="120" y="324" width="1200" height="140"/>
  <rect x="120" y="324" width="6" height="140" rx="3" fill="#ef4444"/>
  <text x="150" y="352" class="text-mono" font-size="14" font-weight="600">Media Services</text>
  <rect x="290" y="338" width="52" height="18" rx="4" fill="rgba(239,68,68,0.08)"/>
  <text x="300" y="351" fill="#ef4444" font-size="9" font-family="JetBrains Mono">media</text>
  <rect x="350" y="338" width="80" height="18" rx="4" fill="rgba(113,113,122,0.1)" stroke="#23233a"/>
  <text x="360" y="351" class="text-muted-mono" font-size="9">8000 - 8099</text>
  <text x="450" y="352" class="text-muted" font-size="10">Used: 3 / 100 (3%)</text>
  <rect x="600" y="342" width="200" height="8" rx="4" fill="#23233a"/>
  <rect x="600" y="342" width="6" height="8" rx="4" fill="#ef4444"/>
  <rect x="1260" y="338" width="24" height="24" rx="4" stroke="#23233a" fill="transparent"/>
  <text x="1266" y="355" class="text-muted" font-size="11">🗑</text>
  <text x="150" y="378" class="text-muted" font-size="10">Ports in use:</text>
  <rect x="230" y="366" width="56" height="18" rx="4" fill="rgba(239,68,68,0.08)" stroke="rgba(239,68,68,0.2)"/>
  <text x="240" y="379" fill="#ef4444" font-size="9" font-family="JetBrains Mono">:8080</text>
  <text x="296" y="378" class="text-muted" font-size="9">nginx-proxy</text>
  <rect x="370" y="366" width="56" height="18" rx="4" fill="rgba(239,68,68,0.08)" stroke="rgba(239,68,68,0.2)"/>
  <text x="380" y="379" fill="#ef4444" font-size="9" font-family="JetBrains Mono">:8081</text>
  <text x="436" y="378" class="text-muted" font-size="9">plex</text>
  <rect x="470" y="366" width="56" height="18" rx="4" fill="rgba(239,68,68,0.08)" stroke="rgba(239,68,68,0.2)"/>
  <text x="480" y="379" fill="#ef4444" font-size="9" font-family="JetBrains Mono">:8096</text>
  <text x="536" y="378" class="text-muted" font-size="9">jellyfin</text>

  <!-- Reservation 2: Development -->
  <rect class="card" x="120" y="476" width="1200" height="120"/>
  <rect x="120" y="476" width="6" height="120" rx="3" fill="#6d5acd"/>
  <text x="150" y="504" class="text-mono" font-size="14" font-weight="600">Development</text>
  <rect x="268" y="490" width="36" height="18" rx="4" fill="rgba(109,90,205,0.08)"/>
  <text x="276" y="503" fill="#6d5acd" font-size="9" font-family="JetBrains Mono">dev</text>
  <rect x="312" y="490" width="80" height="18" rx="4" fill="rgba(113,113,122,0.1)" stroke="#23233a"/>
  <text x="322" y="503" class="text-muted-mono" font-size="9">3000 - 3099</text>
  <text x="412" y="504" class="text-muted" font-size="10">Used: 2 / 100 (2%)</text>
  <rect x="600" y="494" width="200" height="8" rx="4" fill="#23233a"/>
  <rect x="600" y="494" width="4" height="8" rx="4" fill="#6d5acd"/>
  <rect x="1260" y="490" width="24" height="24" rx="4" stroke="#23233a" fill="transparent"/>
  <text x="1266" y="507" class="text-muted" font-size="11">🗑</text>
  <text x="150" y="530" class="text-muted" font-size="10">Ports in use:</text>
  <rect x="230" y="518" width="56" height="18" rx="4" fill="rgba(109,90,205,0.08)" stroke="rgba(109,90,205,0.2)"/>
  <text x="240" y="531" fill="#6d5acd" font-size="9" font-family="JetBrains Mono">:3000</text>
  <text x="296" y="530" class="text-muted" font-size="9">app-backend</text>
  <rect x="376" y="518" width="56" height="18" rx="4" fill="rgba(109,90,205,0.08)" stroke="rgba(109,90,205,0.2)"/>
  <text x="386" y="531" fill="#6d5acd" font-size="9" font-family="JetBrains Mono">:3001</text>
  <text x="442" y="530" class="text-muted" font-size="9">grafana</text>

  <!-- Reservation 3: Monitoring -->
  <rect class="card" x="120" y="608" width="1200" height="120"/>
  <rect x="120" y="608" width="6" height="120" rx="3" fill="#22c55e"/>
  <text x="150" y="636" class="text-mono" font-size="14" font-weight="600">Monitoring</text>
  <rect x="258" y="622" width="60" height="18" rx="4" fill="rgba(34,197,94,0.08)"/>
  <text x="266" y="635" fill="#22c55e" font-size="9" font-family="JetBrains Mono">monitor</text>
  <rect x="326" y="622" width="80" height="18" rx="4" fill="rgba(113,113,122,0.1)" stroke="#23233a"/>
  <text x="336" y="635" class="text-muted-mono" font-size="9">9000 - 9099</text>
  <text x="426" y="636" class="text-muted" font-size="10">Used: 3 / 100 (3%)</text>
  <rect x="600" y="626" width="200" height="8" rx="4" fill="#23233a"/>
  <rect x="600" y="626" width="6" height="8" rx="4" fill="#22c55e"/>
  <rect x="1260" y="622" width="24" height="24" rx="4" stroke="#23233a" fill="transparent"/>
  <text x="1266" y="639" class="text-muted" font-size="11">🗑</text>
  <text x="150" y="662" class="text-muted" font-size="10">Ports in use:</text>
  <rect x="230" y="650" width="56" height="18" rx="4" fill="rgba(34,197,94,0.08)" stroke="rgba(34,197,94,0.2)"/>
  <text x="240" y="663" fill="#22c55e" font-size="9" font-family="JetBrains Mono">:9090</text>
  <text x="296" y="662" class="text-muted" font-size="9">prometheus</text>
  <rect x="376" y="650" width="56" height="18" rx="4" fill="rgba(34,197,94,0.08)" stroke="rgba(34,197,94,0.2)"/>
  <text x="386" y="663" fill="#22c55e" font-size="9" font-family="JetBrains Mono">:9093</text>
  <text x="442" y="662" class="text-muted" font-size="9">alertmanager</text>
  <rect x="522" y="650" width="56" height="18" rx="4" fill="rgba(34,197,94,0.08)" stroke="rgba(34,197,94,0.2)"/>
  <text x="532" y="663" fill="#22c55e" font-size="9" font-family="JetBrains Mono">:9100</text>
  <text x="588" y="662" class="text-muted" font-size="9">node-exporter</text>

  <!-- Unreserved Ports -->
  <rect x="120" y="740" width="1200" height="1" fill="#23233a"/>
  <text x="140" y="768" class="text-mono" font-size="12" font-weight="600">Unreserved Ports in Use</text>
  <text x="140" y="790" class="text-muted" font-size="10">These ports are actively used but not in any reservation range:</text>
  <rect x="140" y="800" width="42" height="18" rx="4" fill="rgba(245,158,11,0.08)" stroke="rgba(245,158,11,0.2)"/>
  <text x="148" y="813" fill="#f59e0b" font-size="9" font-family="JetBrains Mono">:80</text>
  <text x="190" y="812" class="text-muted" font-size="9">nginx</text>
  <rect x="228" y="800" width="46" height="18" rx="4" fill="rgba(245,158,11,0.08)" stroke="rgba(245,158,11,0.2)"/>
  <text x="236" y="813" fill="#f59e0b" font-size="9" font-family="JetBrains Mono">:443</text>
  <text x="282" y="812" class="text-muted" font-size="9">nginx</text>
  <rect x="324" y="800" width="50" height="18" rx="4" fill="rgba(245,158,11,0.08)" stroke="rgba(245,158,11,0.2)"/>
  <text x="332" y="813" fill="#f59e0b" font-size="9" font-family="JetBrains Mono">:5432</text>
  <text x="382" y="812" class="text-muted" font-size="9">postgres</text>
  <rect x="436" y="800" width="50" height="18" rx="4" fill="rgba(245,158,11,0.08)" stroke="rgba(245,158,11,0.2)"/>
  <text x="444" y="813" fill="#f59e0b" font-size="9" font-family="JetBrains Mono">:6379</text>
  <text x="494" y="812" class="text-muted" font-size="9">redis</text>
  <rect x="536" y="800" width="50" height="18" rx="4" fill="rgba(245,158,11,0.08)" stroke="rgba(245,158,11,0.2)"/>
  <text x="544" y="813" fill="#f59e0b" font-size="9" font-family="JetBrains Mono">:5050</text>
  <text x="594" y="812" class="text-muted" font-size="9">pgadmin</text>

  <text x="1320" y="878" class="text-muted" font-size="9" text-anchor="end">HLC — Port Registry (Range Reservations)</text>
</svg>
